<svg width="96" height="20" viewBox="0 0 96 20" fill="none" xmlns="http://www.w3.org/2000/svg">
<path d="M5.58 14.626C4.704 14.626 3.912 14.476 3.204 14.176C2.508 13.876 1.956 13.444 1.548 12.88C1.14 12.316 0.93 11.65 0.918 10.882H3.618C3.654 11.398 3.834 11.806 4.158 12.106C4.494 12.406 4.95 12.556 5.526 12.556C6.114 12.556 6.576 12.418 6.912 12.142C7.248 11.854 7.416 11.482 7.416 11.026C7.416 10.654 7.302 10.348 7.074 10.108C6.846 9.868 6.558 9.682 6.21 9.55C5.874 9.406 5.406 9.25 4.806 9.082C3.99 8.842 3.324 8.608 2.808 8.38C2.304 8.14 1.866 7.786 1.494 7.318C1.134 6.838 0.954 6.202 0.954 5.41C0.954 4.666 1.14 4.018 1.512 3.466C1.884 2.914 2.406 2.494 3.078 2.206C3.75 1.906 4.518 1.756 5.382 1.756C6.678 1.756 7.728 2.074 8.532 2.71C9.348 3.334 9.798 4.21 9.882 5.338H7.11C7.086 4.906 6.9 4.552 6.552 4.276C6.216 3.988 5.766 3.844 5.202 3.844C4.71 3.844 4.314 3.97 4.014 4.222C3.726 4.474 3.582 4.84 3.582 5.32C3.582 5.656 3.69 5.938 3.906 6.166C4.134 6.382 4.41 6.562 4.734 6.706C5.07 6.838 5.538 6.994 6.138 7.174C6.954 7.414 7.62 7.654 8.136 7.894C8.652 8.134 9.096 8.494 9.468 8.974C9.84 9.454 10.026 10.084 10.026 10.864C10.026 11.536 9.852 12.16 9.504 12.736C9.156 13.312 8.646 13.774 7.974 14.122C7.302 14.458 6.504 14.626 5.58 14.626ZM21.4808 9.298C21.4808 9.658 21.4568 9.982 21.4088 10.27H14.1188C14.1788 10.99 14.4308 11.554 14.8748 11.962C15.3188 12.37 15.8648 12.574 16.5128 12.574C17.4488 12.574 18.1148 12.172 18.5108 11.368H21.2288C20.9408 12.328 20.3888 13.12 19.5728 13.744C18.7568 14.356 17.7548 14.662 16.5668 14.662C15.6068 14.662 14.7428 14.452 13.9748 14.032C13.2188 13.6 12.6248 12.994 12.1928 12.214C11.7728 11.434 11.5627 10.534 11.5627 9.514C11.5627 8.482 11.7728 7.576 12.1928 6.796C12.6128 6.016 13.2008 5.416 13.9568 4.996C14.7128 4.576 15.5828 4.366 16.5668 4.366C17.5148 4.366 18.3608 4.57 19.1048 4.978C19.8608 5.386 20.4428 5.968 20.8508 6.724C21.2708 7.468 21.4808 8.326 21.4808 9.298ZM18.8708 8.578C18.8588 7.93 18.6248 7.414 18.1688 7.03C17.7128 6.634 17.1548 6.436 16.4948 6.436C15.8708 6.436 15.3428 6.628 14.9108 7.012C14.4908 7.384 14.2328 7.906 14.1368 8.578H18.8708ZM24.5981 3.34C24.1541 3.34 23.7821 3.202 23.4821 2.926C23.1941 2.638 23.0501 2.284 23.0501 1.864C23.0501 1.444 23.1941 1.096 23.4821 0.819999C23.7821 0.531999 24.1541 0.387999 24.5981 0.387999C25.0421 0.387999 25.4081 0.531999 25.6961 0.819999C25.9961 1.096 26.1461 1.444 26.1461 1.864C26.1461 2.284 25.9961 2.638 25.6961 2.926C25.4081 3.202 25.0421 3.34 24.5981 3.34ZM25.8401 4.528V14.5H23.3201V4.528H25.8401ZM32.9019 6.598H31.1559V14.5H28.5999V6.598H27.4659V4.528H28.5999V4.024C28.5999 2.8 28.9479 1.9 29.6439 1.324C30.3399 0.747999 31.3899 0.478 32.7939 0.514V2.638C32.1819 2.626 31.7559 2.728 31.5159 2.944C31.2759 3.16 31.1559 3.55 31.1559 4.114V4.528H32.9019V6.598ZM38.927 1.936C40.247 1.936 41.405 2.194 42.401 2.71C43.409 3.226 44.183 3.964 44.723 4.924C45.275 5.872 45.551 6.976 45.551 8.236C45.551 9.496 45.275 10.6 44.723 11.548C44.183 12.484 43.409 13.21 42.401 13.726C41.405 14.242 40.247 14.5 38.927 14.5H34.535V1.936H38.927ZM38.837 12.358C40.157 12.358 41.177 11.998 41.897 11.278C42.617 10.558 42.977 9.544 42.977 8.236C42.977 6.928 42.617 5.908 41.897 5.176C41.177 4.432 40.157 4.06 38.837 4.06H37.055V12.358H38.837ZM56.7073 9.298C56.7073 9.658 56.6833 9.982 56.6353 10.27H49.3453C49.4053 10.99 49.6573 11.554 50.1013 11.962C50.5453 12.37 51.0913 12.574 51.7393 12.574C52.6753 12.574 53.3413 12.172 53.7373 11.368H56.4553C56.1673 12.328 55.6153 13.12 54.7993 13.744C53.9833 14.356 52.9813 14.662 51.7933 14.662C50.8333 14.662 49.9693 14.452 49.2013 14.032C48.4453 13.6 47.8513 12.994 47.4193 12.214C46.9993 11.434 46.7893 10.534 46.7893 9.514C46.7893 8.482 46.9993 7.576 47.4193 6.796C47.8393 6.016 48.4273 5.416 49.1833 4.996C49.9393 4.576 50.8093 4.366 51.7933 4.366C52.7413 4.366 53.5873 4.57 54.3313 4.978C55.0873 5.386 55.6693 5.968 56.0773 6.724C56.4973 7.468 56.7073 8.326 56.7073 9.298ZM54.0973 8.578C54.0853 7.93 53.8513 7.414 53.3953 7.03C52.9393 6.634 52.3813 6.436 51.7213 6.436C51.0973 6.436 50.5693 6.628 50.1373 7.012C49.7173 7.384 49.4593 7.906 49.3633 8.578H54.0973ZM62.3627 14.662C61.5467 14.662 60.8147 14.518 60.1667 14.23C59.5187 13.93 59.0027 13.528 58.6187 13.024C58.2467 12.52 58.0427 11.962 58.0067 11.35H60.5447C60.5927 11.734 60.7787 12.052 61.1027 12.304C61.4387 12.556 61.8527 12.682 62.3447 12.682C62.8247 12.682 63.1967 12.586 63.4607 12.394C63.7367 12.202 63.8747 11.956 63.8747 11.656C63.8747 11.332 63.7067 11.092 63.3707 10.936C63.0467 10.768 62.5247 10.588 61.8047 10.396C61.0607 10.216 60.4487 10.03 59.9687 9.838C59.5007 9.646 59.0927 9.352 58.7447 8.956C58.4087 8.56 58.2407 8.026 58.2407 7.354C58.2407 6.802 58.3967 6.298 58.7087 5.842C59.0327 5.386 59.4887 5.026 60.0767 4.762C60.6767 4.498 61.3787 4.366 62.1827 4.366C63.3707 4.366 64.3187 4.666 65.0267 5.266C65.7347 5.854 66.1247 6.652 66.1967 7.66H63.7847C63.7487 7.264 63.5807 6.952 63.2807 6.724C62.9927 6.484 62.6027 6.364 62.1107 6.364C61.6547 6.364 61.3007 6.448 61.0487 6.616C60.8087 6.784 60.6887 7.018 60.6887 7.318C60.6887 7.654 60.8567 7.912 61.1927 8.092C61.5287 8.26 62.0507 8.434 62.7587 8.614C63.4787 8.794 64.0727 8.98 64.5407 9.172C65.0087 9.364 65.4107 9.664 65.7467 10.072C66.0947 10.468 66.2747 10.996 66.2867 11.656C66.2867 12.232 66.1247 12.748 65.8007 13.204C65.4887 13.66 65.0327 14.02 64.4327 14.284C63.8447 14.536 63.1547 14.662 62.3627 14.662ZM69.6333 3.34C69.1893 3.34 68.8173 3.202 68.5173 2.926C68.2293 2.638 68.0853 2.284 68.0853 1.864C68.0853 1.444 68.2293 1.096 68.5173 0.819999C68.8173 0.531999 69.1893 0.387999 69.6333 0.387999C70.0773 0.387999 70.4433 0.531999 70.7313 0.819999C71.0313 1.096 71.1813 1.444 71.1813 1.864C71.1813 2.284 71.0313 2.638 70.7313 2.926C70.4433 3.202 70.0773 3.34 69.6333 3.34ZM70.8753 4.528V14.5H68.3553V4.528H70.8753ZM77.271 4.366C78.015 4.366 78.669 4.516 79.233 4.816C79.797 5.104 80.241 5.482 80.565 5.95V4.528H83.103V14.572C83.103 15.496 82.917 16.318 82.545 17.038C82.173 17.77 81.615 18.346 80.871 18.766C80.127 19.198 79.227 19.414 78.171 19.414C76.755 19.414 75.591 19.084 74.679 18.424C73.779 17.764 73.269 16.864 73.149 15.724H75.651C75.783 16.18 76.065 16.54 76.497 16.804C76.941 17.08 77.475 17.218 78.099 17.218C78.831 17.218 79.425 16.996 79.881 16.552C80.337 16.12 80.565 15.46 80.565 14.572V13.024C80.241 13.492 79.791 13.882 79.215 14.194C78.651 14.506 78.003 14.662 77.271 14.662C76.431 14.662 75.663 14.446 74.967 14.014C74.271 13.582 73.719 12.976 73.311 12.196C72.915 11.404 72.717 10.498 72.717 9.478C72.717 8.47 72.915 7.576 73.311 6.796C73.719 6.016 74.265 5.416 74.949 4.996C75.645 4.576 76.419 4.366 77.271 4.366ZM80.565 9.514C80.565 8.902 80.445 8.38 80.205 7.948C79.965 7.504 79.641 7.168 79.233 6.94C78.825 6.7 78.387 6.58 77.919 6.58C77.451 6.58 77.019 6.694 76.623 6.922C76.227 7.15 75.903 7.486 75.651 7.93C75.411 8.362 75.291 8.878 75.291 9.478C75.291 10.078 75.411 10.606 75.651 11.062C75.903 11.506 76.227 11.848 76.623 12.088C77.031 12.328 77.463 12.448 77.919 12.448C78.387 12.448 78.825 12.334 79.233 12.106C79.641 11.866 79.965 11.53 80.205 11.098C80.445 10.654 80.565 10.126 80.565 9.514ZM91.0903 4.384C92.2783 4.384 93.2383 4.762 93.9703 5.518C94.7023 6.262 95.0683 7.306 95.0683 8.65V14.5H92.5483V8.992C92.5483 8.2 92.3503 7.594 91.9543 7.174C91.5583 6.742 91.0183 6.526 90.3343 6.526C89.6383 6.526 89.0863 6.742 88.6783 7.174C88.2823 7.594 88.0843 8.2 88.0843 8.992V14.5H85.5643V4.528H88.0843V5.77C88.4203 5.338 88.8463 5.002 89.3623 4.762C89.8903 4.51 90.4663 4.384 91.0903 4.384Z" fill="white"/>
</svg>
