<svg width="101" height="51" viewBox="0 0 101 51" fill="none" xmlns="http://www.w3.org/2000/svg">
<path fill-rule="evenodd" clip-rule="evenodd" d="M81.1896 13.1004L69.1698 13.0266V4.89128C69.1698 3.67876 68.6734 2.58094 67.8921 1.79445C67.1027 0.999754 66.0204 0.5 64.8078 0.5H19.593C18.3885 0.5 17.298 0.999754 16.5168 1.78625C15.7274 2.58094 15.2391 3.67057 15.2391 4.88309C15.2391 5.55489 15.7599 6.07103 16.4191 6.07103C17.0783 6.07103 17.5991 5.5467 17.5991 4.88309C17.5991 4.33418 17.8189 3.81804 18.1932 3.46575C18.5594 3.09708 19.0558 2.86769 19.6011 2.86769H64.8159C65.3612 2.86769 65.8495 3.08889 66.2238 3.46575C66.59 3.83443 66.8179 4.33418 66.8179 4.88309V42.1598H57.4836C56.8163 42.1598 56.3036 42.6842 56.3036 43.3478C56.3036 43.995 56.8244 44.5357 57.4836 44.5357H67.9898C68.6571 44.5357 69.1698 44.0114 69.1698 43.3478V41.9796H76.315C76.8602 29.5759 94.5197 27.8718 96.3182 41.9796H100.208C100.721 39.2269 100.534 36.0153 99.8176 32.4761C98.9875 28.347 99.2316 29.1498 95.3986 27.667L87.5861 24.1441L81.1896 13.1004ZM15.4751 26.2742C16.1343 26.2742 16.6633 26.8149 16.6633 27.4703C16.6633 28.1339 16.1262 28.6665 15.4751 28.6665H7.02785C6.36867 28.6665 5.8397 28.1258 5.8397 27.4703C5.8397 26.8067 6.37681 26.2742 7.02785 26.2742H15.4751ZM15.4751 18.4338C16.1343 18.4338 16.6633 18.9745 16.6633 19.6299C16.6633 20.2935 16.1262 20.8261 15.4751 20.8261H4.7899C4.13072 20.8261 3.60175 20.2854 3.60175 19.6299C3.60175 18.9663 4.13886 18.4338 4.7899 18.4338H15.4751ZM15.4751 10.5934C16.1343 10.5934 16.6633 11.1341 16.6633 11.7895C16.6633 12.4531 16.1262 12.9857 15.4751 12.9857H1.68931C1.03827 12.9939 0.50116 12.4531 0.50116 11.7977C0.50116 11.1341 1.03827 10.6016 1.68931 10.6016H15.4751V10.5934ZM53.4553 10.3312H61.2515V13.8049H58.1346V17.1312H61.048V20.4328H58.1346V24.2588H61.5689V27.7325H53.4553V10.3312ZM43.6083 10.3312H51.4045V13.8049H48.2876V17.1312H51.201V20.4328H48.2876V24.2588H51.7219V27.7325H43.6083V10.3312ZM30.9699 10.3312H34.2739C36.4794 10.3312 37.9686 10.4132 38.7499 10.577C39.5311 10.7409 40.1659 11.1669 40.6623 11.8387C41.1587 12.5105 41.4029 13.5919 41.4029 15.0748C41.4029 16.4266 41.232 17.336 40.882 17.803C40.5402 18.27 39.8485 18.5485 38.8312 18.6386C39.759 18.8598 40.3775 19.163 40.6948 19.5316C41.0122 19.9003 41.2075 20.2444 41.2889 20.5557C41.3703 20.867 41.4029 21.7273 41.4029 23.1282V27.7243H37.0653V21.9321C37.0653 20.9981 36.992 20.4246 36.8374 20.2034C36.6909 19.9822 36.2922 19.8675 35.6574 19.8675V27.7243H30.9781V10.3312H30.9699ZM35.6493 13.3052V17.1803C36.1701 17.1803 36.5363 17.1148 36.7479 16.9673C36.9595 16.828 37.0653 16.3692 37.0653 15.6073V14.6488C37.0653 14.0917 36.9595 13.7312 36.7642 13.5592C36.5526 13.3871 36.1864 13.3052 35.6493 13.3052ZM21.5217 10.3312H29.4318V13.8049H26.201V17.1312H29.0656V20.4328H26.201V27.7407H21.5217V10.3312ZM33.1428 42.168C33.7857 42.168 34.3228 42.6924 34.3228 43.356C34.3228 44.0032 33.8019 44.5439 33.1428 44.5439H19.6174C18.4129 44.5439 17.3224 44.0196 16.5412 43.2085C15.7518 42.3892 15.2635 41.2505 15.2635 40.0625V35.3026C15.2635 34.6553 15.7844 34.1146 16.4435 34.1146C17.1109 34.1146 17.6236 34.639 17.6236 35.3026V40.0625C17.6236 40.636 17.8677 41.1767 18.242 41.5782C18.6083 41.9468 19.0803 42.2008 19.6255 42.2008L33.1428 42.168ZM45.1626 34.3768C40.7274 34.3768 37.1548 37.998 37.1548 42.4384C37.1548 46.9034 40.7518 50.5 45.1626 50.5C49.5978 50.5 53.1704 46.8788 53.1704 42.4384C53.1704 37.9734 49.5734 34.3768 45.1626 34.3768ZM45.1626 39.3416C43.4618 39.3416 42.0864 40.7343 42.0864 42.4384C42.0864 44.1507 43.4699 45.5352 45.1626 45.5352C46.8635 45.5352 48.2388 44.1425 48.2388 42.4384C48.2469 40.7261 46.8635 39.3416 45.1626 39.3416ZM86.3166 34.3768C81.8814 34.3768 78.3088 37.998 78.3088 42.4384C78.3088 46.9034 81.9058 50.5 86.3166 50.5C90.7518 50.5 94.3244 46.8788 94.3244 42.4384C94.3244 37.9734 90.7274 34.3768 86.3166 34.3768ZM86.3166 39.3416C84.6157 39.3416 83.2404 40.7343 83.2404 42.4384C83.2404 44.1507 84.6239 45.5352 86.3166 45.5352C88.0174 45.5352 89.3928 44.1425 89.3928 42.4384C89.3928 40.7261 88.0174 39.3416 86.3166 39.3416ZM78.1135 16.5003L72.1483 16.4266V24.1605H82.1499L78.1135 16.5003Z" fill="white"/>
</svg>
