<svg width="55" height="66" viewBox="0 0 55 66" fill="none" xmlns="http://www.w3.org/2000/svg">
<path fill-rule="evenodd" clip-rule="evenodd" d="M50.0083 4.47291C50.3751 4.41934 50.7494 4.49012 51.0709 4.67388C51.3572 4.80021 51.6007 5.00617 51.7722 5.26699C51.9438 5.52782 52.036 5.83242 52.0378 6.14416L52.144 21.0373H52.0962H52.0484H52.0218H51.9953H51.9687H51.3153H49.2008H49.153H49.1052H49.0574H49.0096L48.9246 9.12703L38.8306 15.4735V37.5753C37.9953 38.1581 37.1241 38.688 36.2221 39.1619L35.5792 38.1994V15.6904L22.4145 14.035L21.9311 28.0608L16.7088 24.5121L11.4811 27.4526L12.5436 12.7816L3.67155 11.6551V41.7164L24.6565 44.0382L24.0243 47.2114L1.96619 44.7839C1.549 44.7635 1.1557 44.5841 0.867853 44.2827C0.580009 43.9814 0.419716 43.5814 0.420218 43.1655V9.8463C0.415542 9.52707 0.505198 9.21352 0.678046 8.9446C0.850894 8.67568 1.09931 8.46325 1.39243 8.33371L18.9029 0.643843C19.174 0.521973 19.4735 0.476251 19.7688 0.511624L50.0083 4.47291ZM26.2927 60.9464L30.6438 38.9398L35.0533 45.5561C44.5523 41.764 49.8861 35.5021 50.6777 25.866C58.482 39.4475 53.7431 51.6223 43.8563 58.7515L48.3561 65.5L26.2927 60.9464ZM34.7451 5.73693L25.1824 11.1368L36.7746 12.607L45.4979 7.13845L34.7451 5.73693ZM15.1256 9.85688L24.4014 4.383L19.8007 3.78537L7.99072 8.97365L15.1256 9.87803V9.85688Z" fill="white"/>
</svg>
