<svg width="63" height="61" viewBox="0 0 63 61" fill="none" xmlns="http://www.w3.org/2000/svg">
<path d="M23.3018 3.61684C22.8827 3.87537 22.5719 4.27668 22.4269 4.74633C22.2819 5.21598 22.3127 5.72211 22.5135 6.17086C22.7143 6.61961 23.0715 6.98054 23.5188 7.18672C23.9662 7.39289 24.4733 7.43032 24.9462 7.29206C26.135 6.69754 27.3572 6.17211 28.6068 5.71841C30.9182 4.9519 30.1341 1.40358 27.5886 1.82491C26.1056 2.27562 24.6727 2.87604 23.312 3.61684H23.3018ZM27.0387 30.3942V27.2418L31.7837 22.4092C32.0529 22.1452 32.3062 21.8655 32.5423 21.5716C32.741 21.3402 32.9119 21.0864 33.0514 20.8153C33.1656 20.5776 33.2248 20.3174 33.2245 20.0538C33.2353 19.8082 33.179 19.5643 33.0616 19.3482C32.946 19.1587 32.7649 19.0179 32.5524 18.9523C32.2713 18.8625 31.9769 18.8213 31.6819 18.8304H27.2831V15.6781C27.9551 15.5258 28.7035 15.3887 29.5334 15.2567C30.4877 15.1201 31.4509 15.0556 32.415 15.0638C33.3878 15.0241 34.3574 15.1974 35.2558 15.5715C35.9108 15.859 36.4377 16.3753 36.7374 17.0233C37.0508 17.7663 37.2002 18.5679 37.1752 19.3736C37.184 19.9912 37.0946 20.6063 36.9105 21.196C36.7317 21.739 36.4726 22.2523 36.1417 22.7189C35.7766 23.2303 35.3677 23.7092 34.9198 24.1504L32.2928 26.8307H37.5876V30.3841L27.0387 30.3942ZM45.3669 30.3942V27.587H39.0335L38.336 25.8459L42.75 15.1857H46.823L43.081 24.2316H45.3771V21.9777L46.1357 20.0132H49.3584V24.2316H50.5904V26.9728L49.3584 27.587V30.3942H45.3669ZM15.4461 28.2013C17.2928 31.6353 19.5717 34.8202 22.2276 37.6787C25.3246 40.9167 28.9631 43.5929 32.9801 45.5875C33.1215 45.663 33.278 45.7062 33.4382 45.7141C33.5985 45.722 33.7585 45.6944 33.9067 45.6332C34.3975 45.4114 34.8375 45.0918 35.1998 44.6941C35.6191 44.239 36.0085 43.7574 36.3657 43.2524C38.0916 40.9884 40.2299 38.1761 43.249 39.5823L43.4322 39.6787L53.4975 45.4505L53.5993 45.5164C54.2164 45.9589 54.7126 46.5484 55.0425 47.2312C55.3725 47.9139 55.5257 48.6682 55.4881 49.4252C55.4193 51.1795 54.9136 52.8891 54.0168 54.3999C52.9051 56.3068 51.205 57.8043 49.17 58.6691C47.2653 59.4852 45.255 60.0303 43.1981 60.2884C40.1386 60.7341 37.0173 60.4736 34.0747 59.527C30.845 58.4471 27.7657 56.9632 24.9106 55.1106L24.6815 54.9634C23.1847 54.0395 21.5759 53.0446 20.0027 51.8719C14.209 47.5216 8.32361 41.2118 4.48997 34.3232C1.27745 28.516 -0.479001 22.2468 0.483228 16.2771C0.992344 13.0029 2.42296 10.0231 4.8769 8.0535C7.01519 6.33264 9.90187 5.39353 13.6388 5.72349C13.8492 5.7368 14.0529 5.80287 14.2309 5.91557C14.4089 6.02826 14.5554 6.18395 14.657 6.36818L21.0922 17.2517C21.5236 17.7424 21.8044 18.3464 21.901 18.9918C21.9976 19.6371 21.9059 20.2966 21.637 20.8914C21.0711 22.0119 20.2195 22.9643 19.1678 23.6529C18.8165 23.9524 18.4041 24.2468 17.9714 24.5616C16.5306 25.6022 14.8861 26.8104 15.4512 28.2368V28.2013H15.4461ZM55.5492 39.1914C55.3296 39.6183 55.2687 40.109 55.3773 40.5765C55.4859 41.0439 55.757 41.4579 56.1426 41.745C56.5282 42.0321 57.0033 42.1738 57.4836 42.145C57.964 42.1161 58.4186 41.9186 58.7668 41.5874C58.8663 41.4777 58.955 41.3587 59.0316 41.2321C59.7643 39.948 60.3713 38.5965 60.844 37.1964C60.9841 36.7345 60.9547 36.238 60.761 35.7958C60.5673 35.3536 60.222 34.9946 59.7869 34.7832C59.3518 34.5718 58.8555 34.5218 58.3868 34.6422C57.9182 34.7625 57.5078 35.0454 57.2293 35.44C57.1462 35.5744 57.0779 35.7174 57.0256 35.8664C56.637 37.0185 56.141 38.1316 55.5441 39.1914H55.5492ZM58.6803 28.4957C58.6605 28.9816 58.8162 29.4585 59.1193 29.8397C59.4223 30.2208 59.8525 30.4808 60.3315 30.5724C60.8106 30.664 61.3067 30.5811 61.7296 30.3388C62.1526 30.0965 62.4742 29.7108 62.6361 29.252C62.6742 29.1211 62.6998 28.9868 62.7125 28.851C62.8193 27.3799 62.7988 25.9023 62.6514 24.4347C62.59 23.9721 62.3708 23.5448 62.0306 23.2245C61.6904 22.9042 61.2499 22.7105 60.7833 22.6759C60.3167 22.6414 59.8524 22.7681 59.4684 23.0348C59.0845 23.3014 58.8044 23.6918 58.6752 24.1402C58.6198 24.3745 58.6026 24.6162 58.6243 24.856C58.7497 26.0652 58.7684 27.2832 58.6803 28.4957ZM56.6845 17.7238C56.9413 18.1517 57.3469 18.4705 57.8242 18.6194C58.3015 18.7682 58.817 18.7368 59.2726 18.531C59.7281 18.3252 60.0917 17.9595 60.2942 17.5036C60.4967 17.0477 60.5239 16.5334 60.3705 16.0588C59.7648 14.7303 59.0478 13.455 58.2272 12.2465C58.094 11.9932 57.9087 11.7709 57.6834 11.594C57.4581 11.417 57.1979 11.2896 56.9197 11.2199C56.6416 11.1502 56.3518 11.1399 56.0694 11.1896C55.787 11.2393 55.5183 11.348 55.2809 11.5084C55.0435 11.6688 54.8427 11.8775 54.6918 12.1206C54.5409 12.3638 54.4432 12.636 54.4051 12.9194C54.367 13.2028 54.3893 13.491 54.4707 13.7652C54.552 14.0394 54.6906 14.2934 54.8772 14.5105C55.5681 15.5297 56.1726 16.6045 56.6845 17.7238ZM49.786 9.16521C51.909 10.7135 54.3681 7.64232 52.2196 5.94177C51.05 5.06807 49.8123 4.28892 48.5183 3.61176C46.4411 2.53051 44.4199 5.358 46.2884 6.95195C46.4004 7.0436 46.5215 7.12354 46.6499 7.19054C47.7467 7.76376 48.7955 8.42412 49.786 9.16521ZM39.6037 4.84022C40.0842 4.91054 40.5741 4.8073 40.9851 4.54914C41.396 4.29098 41.7008 3.89489 41.8446 3.43234C41.9884 2.96979 41.9616 2.47123 41.7692 2.02662C41.5767 1.582 41.2312 1.2206 40.795 1.00763C40.6328 0.933591 40.4617 0.8807 40.2859 0.850263C38.8391 0.623643 37.3772 0.506554 35.9126 0.5C35.3725 0.5 34.8545 0.713928 34.4726 1.09472C34.0907 1.47552 33.8761 1.99199 33.8761 2.53051C33.8761 3.06904 34.0907 3.58551 34.4726 3.9663C34.8545 4.3471 35.3725 4.56102 35.9126 4.56102C37.1522 4.57103 38.3894 4.67284 39.6139 4.8656L39.6037 4.84022Z" fill="white"/>
</svg>
