<svg width="49" height="65" viewBox="0 0 49 65" fill="none" xmlns="http://www.w3.org/2000/svg">
<path fill-rule="evenodd" clip-rule="evenodd" d="M46.9111 59.8079L40.8611 58.713L37.8597 64.1401C35.6807 66.8642 34.2978 62.3839 33.6902 60.8235L27.8498 49.6997C29.1959 49.2289 30.8197 47.8695 32.4855 46.3408C35.8116 46.4096 38.9126 45.8278 41.1911 42.8974L47.9011 55.9889L48.4826 57.2478C48.9435 58.8823 48.7026 59.9613 46.9111 59.8079ZM24.5026 0.00466739C25.6393 -0.0429383 26.535 0.353776 27.4412 0.935622C28.5883 1.67087 29.8821 3.12548 31.4797 4.04586C33.7269 5.34179 37.8859 3.55393 40.0126 6.7488C41.254 8.61071 41.3116 10.0706 41.4059 11.5147C41.5054 13.0698 41.7778 14.5032 43.3545 16.6085C45.9683 20.0995 46.513 22.4216 45.1668 24.8389C44.2502 26.4893 42.3173 27.4044 41.8721 28.4517C40.9188 30.6733 41.9716 32.3501 40.6726 34.9419C39.7664 36.7404 38.3731 37.9252 36.5135 38.5282C34.9474 39.036 33.3759 38.3008 32.1188 38.835C29.9136 39.7713 28.2898 41.9452 26.535 42.4954C25.8593 42.7069 25.1836 42.8127 24.5079 42.8074C23.8321 42.8127 23.1564 42.7069 22.4807 42.4954C20.726 41.9452 19.1022 39.7713 16.8969 38.835C15.6398 38.3008 14.0684 39.0413 12.5022 38.5282C10.6427 37.9252 9.24933 36.7404 8.34314 34.9419C7.03886 32.3501 8.09171 30.6733 7.14362 28.4517C6.69838 27.4044 4.76553 26.4893 3.84887 24.8389C2.49221 22.4216 3.03697 20.0995 5.65077 16.6138C7.22743 14.5085 7.49981 13.0751 7.59933 11.5199C7.69362 10.0759 7.75124 8.616 8.99266 6.75409C11.1246 3.55922 15.2836 5.34708 17.5255 4.05115C19.1231 3.13077 20.4169 1.67615 21.5641 0.940912C22.465 0.353776 23.366 -0.0482278 24.5026 0.00466739ZM20.8098 18.9306L23.5441 21.5594L28.2479 16.7301C28.714 16.2541 29.0074 15.8732 29.5783 16.4656L31.4431 18.391C32.0559 19.0046 32.0245 19.359 31.4483 19.9303L24.6074 26.722C23.3921 27.928 23.6017 28.0021 22.3655 26.7643L17.6669 22.0461C17.4103 21.7657 17.4365 21.4801 17.7193 21.1998L19.8826 18.9358C20.2126 18.5867 20.4745 18.6079 20.8098 18.9306ZM24.5026 8.58955C31.5112 8.58955 37.1945 14.3287 37.1945 21.4061C37.1945 28.4834 31.5112 34.2226 24.5026 34.2226C17.4941 34.2226 11.8108 28.4834 11.8108 21.4061C11.8108 14.3234 17.4941 8.58955 24.5026 8.58955ZM2.08887 59.8079L8.14409 58.713L11.1455 64.1401C13.3246 66.8642 14.7074 62.3839 15.315 60.8235L21.1555 49.6997C19.8093 49.2289 18.1855 47.8695 16.5198 46.3408C13.1936 46.4096 10.0927 45.8278 7.8141 42.8974L1.09888 55.9889L0.51745 57.2478C0.0564988 58.8823 0.29745 59.9613 2.08887 59.8079Z" fill="white"/>
</svg>
